<mxfile host="app.diagrams.net" agent="Mozilla/5.0 (Windows NT 10.0; Win64; x64) AppleWebKit/537.36 (KHTML, like Gecko) Chrome/129.0.0.0 Safari/537.36" version="24.7.17">
  <diagram name="第 1 页" id="_caqIKV3R5A3Pm-jw2EW">
    <mxGraphModel dx="1434" dy="746" grid="1" gridSize="10" guides="1" tooltips="1" connect="1" arrows="1" fold="1" page="1" pageScale="1" pageWidth="827" pageHeight="1169" math="0" shadow="0">
      <root>
        <mxCell id="0" />
        <mxCell id="1" parent="0" />
        <mxCell id="zrn3Ke1RjNMY7rsUy1EQ-1" value="" style="rounded=0;whiteSpace=wrap;html=1;" vertex="1" parent="1">
          <mxGeometry x="70" y="96.5" width="970" height="577" as="geometry" />
        </mxCell>
        <mxCell id="zrn3Ke1RjNMY7rsUy1EQ-2" value="" style="sketch=0;pointerEvents=1;shadow=0;dashed=0;html=1;strokeColor=none;labelPosition=center;verticalLabelPosition=bottom;verticalAlign=top;outlineConnect=0;align=center;shape=mxgraph.office.users.users;fillColor=#DA4026;" vertex="1" parent="1">
          <mxGeometry x="100" y="230" width="46" height="50" as="geometry" />
        </mxCell>
        <mxCell id="zrn3Ke1RjNMY7rsUy1EQ-3" style="edgeStyle=orthogonalEdgeStyle;rounded=0;orthogonalLoop=1;jettySize=auto;html=1;" edge="1" parent="1" source="zrn3Ke1RjNMY7rsUy1EQ-4" target="zrn3Ke1RjNMY7rsUy1EQ-18">
          <mxGeometry relative="1" as="geometry" />
        </mxCell>
        <mxCell id="zrn3Ke1RjNMY7rsUy1EQ-4" value="" style="fontColor=#0066CC;verticalAlign=top;verticalLabelPosition=bottom;labelPosition=center;align=center;html=1;outlineConnect=0;fillColor=#CCCCCC;strokeColor=#6881B3;gradientColor=none;gradientDirection=north;strokeWidth=2;shape=mxgraph.networks.pc;" vertex="1" parent="1">
          <mxGeometry x="230" y="220" width="100" height="70" as="geometry" />
        </mxCell>
        <mxCell id="zrn3Ke1RjNMY7rsUy1EQ-5" value="" style="sketch=0;pointerEvents=1;shadow=0;dashed=0;html=1;strokeColor=none;labelPosition=center;verticalLabelPosition=bottom;verticalAlign=top;outlineConnect=0;align=center;shape=mxgraph.office.users.users;fillColor=#DA4026;" vertex="1" parent="1">
          <mxGeometry x="257" y="535" width="46" height="50" as="geometry" />
        </mxCell>
        <mxCell id="zrn3Ke1RjNMY7rsUy1EQ-6" style="edgeStyle=orthogonalEdgeStyle;rounded=0;orthogonalLoop=1;jettySize=auto;html=1;entryX=0;entryY=0.5;entryDx=0;entryDy=0;entryPerimeter=0;" edge="1" parent="1" source="zrn3Ke1RjNMY7rsUy1EQ-2" target="zrn3Ke1RjNMY7rsUy1EQ-4">
          <mxGeometry relative="1" as="geometry" />
        </mxCell>
        <mxCell id="zrn3Ke1RjNMY7rsUy1EQ-7" value="" style="rounded=1;whiteSpace=wrap;html=1;dashed=1;dashPattern=8 8;" vertex="1" parent="1">
          <mxGeometry x="580" y="162.5" width="300" height="185" as="geometry" />
        </mxCell>
        <mxCell id="zrn3Ke1RjNMY7rsUy1EQ-8" value="maven私服" style="rounded=0;whiteSpace=wrap;html=1;" vertex="1" parent="1">
          <mxGeometry x="605" y="220" width="110" height="40" as="geometry" />
        </mxCell>
        <mxCell id="zrn3Ke1RjNMY7rsUy1EQ-9" value="yum私服" style="rounded=0;whiteSpace=wrap;html=1;" vertex="1" parent="1">
          <mxGeometry x="745" y="220" width="110" height="40" as="geometry" />
        </mxCell>
        <mxCell id="zrn3Ke1RjNMY7rsUy1EQ-10" value="npm私服" style="rounded=0;whiteSpace=wrap;html=1;" vertex="1" parent="1">
          <mxGeometry x="605" y="290" width="110" height="40" as="geometry" />
        </mxCell>
        <mxCell id="zrn3Ke1RjNMY7rsUy1EQ-11" value="..." style="rounded=0;whiteSpace=wrap;html=1;" vertex="1" parent="1">
          <mxGeometry x="745" y="290" width="110" height="40" as="geometry" />
        </mxCell>
        <mxCell id="zrn3Ke1RjNMY7rsUy1EQ-12" value="Nexus服务器" style="rounded=0;whiteSpace=wrap;html=1;dashed=1;" vertex="1" parent="1">
          <mxGeometry x="680" y="162.5" width="100" height="30" as="geometry" />
        </mxCell>
        <mxCell id="zrn3Ke1RjNMY7rsUy1EQ-13" value="" style="shape=flexArrow;endArrow=classic;startArrow=classic;html=1;rounded=0;exitX=1;exitY=0.5;exitDx=0;exitDy=0;exitPerimeter=0;entryX=0;entryY=0.5;entryDx=0;entryDy=0;" edge="1" parent="1" source="zrn3Ke1RjNMY7rsUy1EQ-4" target="zrn3Ke1RjNMY7rsUy1EQ-7">
          <mxGeometry width="100" height="100" relative="1" as="geometry">
            <mxPoint x="370" y="320" as="sourcePoint" />
            <mxPoint x="470" y="220" as="targetPoint" />
          </mxGeometry>
        </mxCell>
        <mxCell id="zrn3Ke1RjNMY7rsUy1EQ-14" value="下载jar包" style="text;strokeColor=none;align=center;fillColor=none;html=1;verticalAlign=middle;whiteSpace=wrap;rounded=0;" vertex="1" parent="1">
          <mxGeometry x="420" y="210" width="60" height="30" as="geometry" />
        </mxCell>
        <mxCell id="zrn3Ke1RjNMY7rsUy1EQ-15" value="构建maven项目" style="text;strokeColor=none;align=center;fillColor=none;html=1;verticalAlign=middle;whiteSpace=wrap;rounded=0;" vertex="1" parent="1">
          <mxGeometry x="405" y="270" width="90" height="30" as="geometry" />
        </mxCell>
        <mxCell id="zrn3Ke1RjNMY7rsUy1EQ-16" style="edgeStyle=orthogonalEdgeStyle;rounded=0;orthogonalLoop=1;jettySize=auto;html=1;" edge="1" parent="1" source="zrn3Ke1RjNMY7rsUy1EQ-18" target="zrn3Ke1RjNMY7rsUy1EQ-5">
          <mxGeometry relative="1" as="geometry" />
        </mxCell>
        <mxCell id="zrn3Ke1RjNMY7rsUy1EQ-17" style="edgeStyle=orthogonalEdgeStyle;rounded=0;orthogonalLoop=1;jettySize=auto;html=1;" edge="1" parent="1" source="zrn3Ke1RjNMY7rsUy1EQ-18" target="zrn3Ke1RjNMY7rsUy1EQ-25">
          <mxGeometry relative="1" as="geometry" />
        </mxCell>
        <mxCell id="zrn3Ke1RjNMY7rsUy1EQ-18" value="npm私服" style="rounded=0;whiteSpace=wrap;html=1;" vertex="1" parent="1">
          <mxGeometry x="225" y="390" width="110" height="40" as="geometry" />
        </mxCell>
        <mxCell id="zrn3Ke1RjNMY7rsUy1EQ-19" value="提交代码" style="text;strokeColor=none;align=center;fillColor=none;html=1;verticalAlign=middle;whiteSpace=wrap;rounded=0;" vertex="1" parent="1">
          <mxGeometry x="280" y="330" width="60" height="30" as="geometry" />
        </mxCell>
        <mxCell id="zrn3Ke1RjNMY7rsUy1EQ-20" value="通知测试人员" style="text;strokeColor=none;align=center;fillColor=none;html=1;verticalAlign=middle;whiteSpace=wrap;rounded=0;" vertex="1" parent="1">
          <mxGeometry x="280" y="470" width="80" height="30" as="geometry" />
        </mxCell>
        <mxCell id="zrn3Ke1RjNMY7rsUy1EQ-21" value="开发人员" style="text;strokeColor=none;align=center;fillColor=none;html=1;verticalAlign=middle;whiteSpace=wrap;rounded=0;" vertex="1" parent="1">
          <mxGeometry x="83" y="290" width="80" height="30" as="geometry" />
        </mxCell>
        <mxCell id="zrn3Ke1RjNMY7rsUy1EQ-22" value="测试人员" style="text;strokeColor=none;align=center;fillColor=none;html=1;verticalAlign=middle;whiteSpace=wrap;rounded=0;" vertex="1" parent="1">
          <mxGeometry x="240" y="600" width="80" height="30" as="geometry" />
        </mxCell>
        <mxCell id="zrn3Ke1RjNMY7rsUy1EQ-23" style="edgeStyle=orthogonalEdgeStyle;rounded=0;orthogonalLoop=1;jettySize=auto;html=1;entryX=0;entryY=0.5;entryDx=0;entryDy=0;" edge="1" parent="1" source="zrn3Ke1RjNMY7rsUy1EQ-25" target="zrn3Ke1RjNMY7rsUy1EQ-27">
          <mxGeometry relative="1" as="geometry">
            <mxPoint x="740" y="410" as="targetPoint" />
          </mxGeometry>
        </mxCell>
        <mxCell id="zrn3Ke1RjNMY7rsUy1EQ-24" style="edgeStyle=orthogonalEdgeStyle;rounded=0;orthogonalLoop=1;jettySize=auto;html=1;entryX=0;entryY=0.5;entryDx=0;entryDy=0;" edge="1" parent="1" source="zrn3Ke1RjNMY7rsUy1EQ-25" target="zrn3Ke1RjNMY7rsUy1EQ-28">
          <mxGeometry relative="1" as="geometry">
            <Array as="points">
              <mxPoint x="650" y="410" />
              <mxPoint x="650" y="540" />
            </Array>
          </mxGeometry>
        </mxCell>
        <mxCell id="zrn3Ke1RjNMY7rsUy1EQ-25" value="编译、测试、构建DOCKer镜像" style="rounded=0;whiteSpace=wrap;html=1;" vertex="1" parent="1">
          <mxGeometry x="510" y="390" width="110" height="40" as="geometry" />
        </mxCell>
        <mxCell id="zrn3Ke1RjNMY7rsUy1EQ-26" style="edgeStyle=orthogonalEdgeStyle;rounded=0;orthogonalLoop=1;jettySize=auto;html=1;entryX=0.5;entryY=0;entryDx=0;entryDy=0;" edge="1" parent="1" source="zrn3Ke1RjNMY7rsUy1EQ-27" target="zrn3Ke1RjNMY7rsUy1EQ-28">
          <mxGeometry relative="1" as="geometry" />
        </mxCell>
        <mxCell id="zrn3Ke1RjNMY7rsUy1EQ-27" value="Docker Registry" style="rounded=0;whiteSpace=wrap;html=1;" vertex="1" parent="1">
          <mxGeometry x="780" y="390" width="110" height="40" as="geometry" />
        </mxCell>
        <mxCell id="zrn3Ke1RjNMY7rsUy1EQ-28" value="应用服务器" style="rounded=0;whiteSpace=wrap;html=1;" vertex="1" parent="1">
          <mxGeometry x="780" y="520" width="110" height="40" as="geometry" />
        </mxCell>
        <mxCell id="zrn3Ke1RjNMY7rsUy1EQ-29" value="触发jenkins" style="text;strokeColor=none;align=center;fillColor=none;html=1;verticalAlign=middle;whiteSpace=wrap;rounded=0;" vertex="1" parent="1">
          <mxGeometry x="380" y="370" width="80" height="30" as="geometry" />
        </mxCell>
        <mxCell id="zrn3Ke1RjNMY7rsUy1EQ-30" value="发布Docker镜像" style="text;strokeColor=none;align=center;fillColor=none;html=1;verticalAlign=middle;whiteSpace=wrap;rounded=0;" vertex="1" parent="1">
          <mxGeometry x="670" y="370" width="90" height="30" as="geometry" />
        </mxCell>
        <mxCell id="zrn3Ke1RjNMY7rsUy1EQ-31" value="执行远程脚本" style="text;strokeColor=none;align=center;fillColor=none;html=1;verticalAlign=middle;whiteSpace=wrap;rounded=0;" vertex="1" parent="1">
          <mxGeometry x="550" y="500" width="90" height="30" as="geometry" />
        </mxCell>
        <mxCell id="zrn3Ke1RjNMY7rsUy1EQ-32" value="启动docker容器" style="text;strokeColor=none;align=center;fillColor=none;html=1;verticalAlign=middle;whiteSpace=wrap;rounded=0;" vertex="1" parent="1">
          <mxGeometry x="840" y="460" width="90" height="30" as="geometry" />
        </mxCell>
        <mxCell id="zrn3Ke1RjNMY7rsUy1EQ-33" value="" style="rounded=0;whiteSpace=wrap;html=1;" vertex="1" parent="1">
          <mxGeometry x="350" y="350" width="120" height="60" as="geometry" />
        </mxCell>
      </root>
    </mxGraphModel>
  </diagram>
</mxfile>
